<?xml version="1.0" standalone="no"?>
<!DOCTYPE svg PUBLIC "-//W3C//DTD SVG 20010904//EN"
 "http://www.w3.org/TR/2001/REC-SVG-20010904/DTD/svg10.dtd">
<svg version="1.0" xmlns="http://www.w3.org/2000/svg"
 width="260.000000pt" height="260.000000pt" viewBox="0 0 260.000000 260.000000"
 preserveAspectRatio="xMidYMid meet">
<metadata>
Created by potrace 1.11, written by Peter Selinger 2001-2013
</metadata>
<g transform="translate(0.000000,260.000000) scale(0.100000,-0.100000)"
fill="#000000" stroke="none">
<path d="M11 1593 l1 -1008 201 803 202 802 1016 0 c1106 0 1060 2 1136 -56
27 -20 33 -22 33 -9 0 9 -5 26 -11 38 -9 16 -9 22 0 25 8 3 11 64 11 208 l0
204 -1295 0 -1295 0 1 -1007z"/>
<path d="M521 2003 c-77 -297 -351 -1395 -351 -1407 0 -14 22 -16 200 -16
l199 0 10 38 c6 20 71 286 146 590 l137 552 200 0 c185 0 199 -1 194 -17 -15
-50 -286 -1142 -286 -1152 0 -8 56 -11 199 -11 l199 0 147 590 147 590 200 0
c185 0 199 -1 194 -17 -21 -74 -286 -1136 -286 -1148 0 -13 29 -15 200 -15
110 0 200 1 200 3 1 1 77 308 169 681 142 574 167 684 159 713 -18 66 35 63
-1017 63 l-950 0 -10 -37z"/>
<path d="M2440 1055 l-155 -615 -352 0 c-194 0 -353 2 -353 5 0 6 278 1120
286 1148 5 16 0 18 -42 15 l-48 -3 -145 -582 -146 -583 -352 0 c-194 0 -353 2
-353 5 0 6 278 1120 286 1148 5 16 0 18 -42 15 l-48 -3 -145 -582 -146 -583
-337 0 -338 0 0 -220 0 -220 1295 0 1295 0 0 835 c0 459 -1 835 -3 835 -2 0
-73 -277 -157 -615z"/>
</g>
</svg>
